<?xml version="1.0" standalone="no"?>
<!DOCTYPE svg PUBLIC "-//W3C//DTD SVG 20010904//EN"
 "http://www.w3.org/TR/2001/REC-SVG-20010904/DTD/svg10.dtd">
<svg version="1.0" xmlns="http://www.w3.org/2000/svg"
 width="700.000000pt" height="700.000000pt" viewBox="0 0 700.000000 700.000000"
 preserveAspectRatio="xMidYMid meet">
<metadata>
Created by potrace 1.14, written by Peter Selinger 2001-2017
</metadata>
<g transform="translate(0.000000,700.000000) scale(0.100000,-0.100000)"
fill="#000000" stroke="none">
<path d="M3308 6875 c-2 -1 -41 -5 -88 -9 -47 -4 -96 -8 -110 -10 -14 -3 -47
-7 -75 -11 -92 -11 -123 -24 -152 -62 -31 -40 -30 -33 -32 -395 -1 -129 -4
-158 -15 -158 -33 0 -262 -73 -387 -123 -115 -47 -268 -121 -374 -182 l-30
-17 -160 162 c-178 180 -197 196 -241 203 -58 9 -109 -20 -289 -167 -198 -162
-469 -451 -585 -625 -36 -53 -39 -109 -10 -155 10 -17 93 -104 183 -193 l164
-161 -45 -79 c-120 -211 -248 -528 -277 -685 l-7 -38 -157 0 c-302 -1 -354 -4
-383 -26 -32 -24 -56 -61 -62 -100 -21 -131 -22 -145 -32 -294 -9 -133 -9
-412 0 -510 4 -41 9 -96 11 -121 2 -25 6 -59 9 -75 2 -16 8 -49 11 -74 9 -58
29 -91 68 -115 32 -19 85 -22 463 -25 l71 0 18 -67 c58 -216 147 -435 255
-629 33 -59 60 -110 60 -113 0 -4 -75 -80 -166 -171 -91 -91 -172 -177 -180
-192 -8 -15 -14 -45 -14 -67 0 -34 11 -54 74 -138 92 -124 150 -189 289 -332
120 -122 323 -297 421 -362 54 -36 65 -40 104 -35 24 3 51 11 60 18 10 7 91
87 183 179 l165 167 90 -50 c119 -67 248 -127 369 -172 55 -21 109 -42 120
-46 11 -5 67 -21 125 -37 l105 -29 1 -251 c2 -219 4 -255 19 -281 29 -48 63
-63 176 -77 24 -3 55 -7 69 -10 182 -28 578 -26 825 5 139 17 169 30 201 84
16 28 18 56 19 280 l0 248 130 39 c123 35 232 74 300 104 110 49 250 118 310
152 l69 40 175 -173 c219 -217 243 -227 354 -148 198 141 452 380 612 575 131
160 164 215 159 265 -5 52 -19 70 -201 251 l-163 163 31 53 c102 172 231 477
278 657 13 47 26 89 31 93 4 5 121 10 258 10 236 2 252 3 279 23 36 26 60 76
68 143 4 30 8 62 10 71 26 134 26 608 0 760 -2 14 -7 51 -10 82 -17 162 -34
206 -92 239 -24 14 -66 16 -270 17 -133 0 -246 2 -251 6 -5 3 -13 23 -17 43
-10 56 -72 245 -112 343 -36 88 -136 293 -180 368 l-25 44 181 182 c185 186
186 188 182 261 -8 136 -716 842 -862 859 -19 2 -49 -2 -66 -10 -18 -7 -110
-90 -204 -185 l-171 -171 -46 26 c-215 122 -497 238 -702 289 l-55 13 -2 235
c-1 128 -4 248 -8 266 -7 37 -61 88 -102 97 -57 11 -89 16 -158 22 -38 3 -77
8 -85 11 -15 5 -496 14 -502 8z m457 -279 c55 -5 103 -10 108 -13 4 -2 7 -105
7 -227 0 -123 3 -238 6 -256 4 -17 21 -46 38 -64 25 -27 46 -36 111 -50 148
-32 347 -95 460 -145 102 -45 253 -124 331 -173 168 -106 182 -102 407 122
l169 167 81 -66 c104 -83 324 -302 406 -404 l64 -79 -166 -166 c-92 -93 -172
-183 -180 -201 -23 -55 -11 -100 52 -193 118 -176 252 -496 316 -758 30 -123
41 -146 84 -173 35 -21 44 -22 278 -21 l241 1 6 -29 c24 -120 25 -603 1 -723
-2 -11 -4 -23 -4 -28 -1 -4 -108 -7 -239 -7 -151 1 -249 -3 -268 -10 -50 -19
-70 -54 -99 -173 -74 -300 -193 -578 -349 -814 -37 -55 -47 -95 -34 -140 8
-30 48 -76 179 -208 93 -94 169 -175 169 -179 0 -27 -259 -303 -396 -421 -119
-103 -133 -115 -142 -115 -4 0 -79 72 -167 161 -170 171 -217 204 -274 193
-18 -4 -80 -36 -139 -71 -229 -139 -463 -236 -717 -298 -229 -56 -227 -53
-226 -382 1 -128 -2 -233 -6 -233 -5 0 -39 -4 -78 -8 -94 -9 -524 -9 -606 1
l-66 8 1 237 c1 325 1 325 -219 376 -261 61 -471 147 -710 291 -130 78 -166
90 -219 72 -17 -6 -106 -85 -200 -179 -94 -92 -173 -168 -176 -168 -9 0 -145
115 -214 180 -129 122 -326 339 -326 358 0 4 68 74 150 156 175 173 198 201
204 247 5 44 -5 68 -63 159 -112 175 -217 402 -274 590 -31 103 -58 204 -64
245 -7 44 -35 87 -69 107 -27 16 -60 18 -277 19 -136 0 -248 3 -248 7 -22 113
-29 429 -15 612 5 58 9 116 10 130 l2 25 249 5 c163 3 257 9 270 17 46 27 62
59 94 193 58 242 179 527 316 749 62 100 70 142 41 200 -10 18 -89 104 -177
192 -87 89 -159 162 -159 165 0 11 160 192 241 274 144 144 289 270 310 270 5
0 80 -71 167 -158 223 -224 237 -228 402 -128 198 121 438 229 605 272 6 2 70
18 143 37 143 36 173 54 193 114 6 20 11 127 12 266 2 224 3 232 22 234 11 1
58 5 105 8 47 4 86 8 87 9 6 5 342 -2 428 -8z"/>
<path d="M3355 5269 c-229 -21 -460 -86 -655 -185 -264 -133 -511 -350 -675
-594 -90 -135 -212 -398 -240 -520 -2 -8 -10 -44 -19 -80 -37 -156 -44 -238
-41 -430 2 -96 8 -200 13 -230 6 -30 13 -71 17 -90 11 -65 51 -200 75 -255 10
-22 21 -51 25 -65 15 -48 94 -196 152 -285 227 -345 546 -590 933 -719 331
-110 706 -119 1025 -25 39 11 75 21 80 22 30 7 151 57 227 94 531 259 900 769
983 1356 12 85 13 392 1 457 -2 14 -7 45 -11 70 -102 680 -619 1250 -1293
1426 -54 14 -113 27 -132 30 -19 3 -42 7 -50 9 -57 15 -311 24 -415 14z m375
-284 c279 -52 512 -155 710 -314 47 -38 188 -177 229 -225 131 -158 245 -398
299 -631 22 -94 25 -135 26 -280 1 -200 -5 -269 -38 -398 -141 -553 -596 -992
-1142 -1101 -131 -26 -144 -27 -279 -30 -265 -6 -485 45 -720 164 -343 175
-614 487 -735 849 -61 180 -75 274 -75 486 0 160 6 217 31 323 9 37 17 72 18
77 10 46 57 168 96 250 209 434 607 734 1095 824 78 15 138 18 275 16 96 -2
191 -6 210 -10z"/>
<path d="M4252 4139 c-39 -15 -43 -18 -467 -424 -94 -89 -343 -325 -385 -365
-25 -23 -74 -69 -108 -103 l-64 -62 -120 125 c-297 308 -330 339 -365 346 -86
16 -156 -32 -170 -117 -7 -48 23 -95 135 -211 61 -62 138 -142 172 -178 162
-171 275 -280 299 -287 29 -10 32 -10 81 0 39 8 21 -8 506 453 93 89 185 176
204 194 19 18 109 103 199 189 90 86 180 172 201 191 61 56 75 103 51 172 -20
60 -108 100 -169 77z"/>
</g>
</svg>
